<svg width="256" height="256" viewBox="0 0 256 256" fill="none" xmlns="http://www.w3.org/2000/svg">
<path d="M208 32H184V24C184 21.8783 183.157 19.8434 181.657 18.3431C180.157 16.8429 178.122 16 176 16C173.878 16 171.843 16.8429 170.343 18.3431C168.843 19.8434 168 21.8783 168 24V32H88V24C88 21.8783 87.1571 19.8434 85.6569 18.3431C84.1566 16.8429 82.1217 16 80 16C77.8783 16 75.8434 16.8429 74.3431 18.3431C72.8429 19.8434 72 21.8783 72 24V32H48C43.7565 32 39.6869 33.6857 36.6863 36.6863C33.6857 39.6869 32 43.7565 32 48V208C32 212.243 33.6857 216.313 36.6863 219.314C39.6869 222.314 43.7565 224 48 224H208C212.243 224 216.313 222.314 219.314 219.314C222.314 216.313 224 212.243 224 208V48C224 43.7565 222.314 39.6869 219.314 36.6863C216.313 33.6857 212.243 32 208 32ZM72 48V56C72 58.1217 72.8429 60.1566 74.3431 61.6569C75.8434 63.1571 77.8783 64 80 64C82.1217 64 84.1566 63.1571 85.6569 61.6569C87.1571 60.1566 88 58.1217 88 56V48H168V56C168 58.1217 168.843 60.1566 170.343 61.6569C171.843 63.1571 173.878 64 176 64C178.122 64 180.157 63.1571 181.657 61.6569C183.157 60.1566 184 58.1217 184 56V48H208V80H48V48H72ZM208 208H48V96H208V208ZM112 120V184C112 186.122 111.157 188.157 109.657 189.657C108.157 191.157 106.122 192 104 192C101.878 192 99.8434 191.157 98.3431 189.657C96.8429 188.157 96 186.122 96 184V132.94L91.58 135.16C89.6811 136.109 87.4827 136.266 85.4686 135.594C83.4544 134.923 81.7895 133.479 80.84 131.58C79.8905 129.681 79.7343 127.483 80.4057 125.469C81.0771 123.454 82.521 121.789 84.42 120.84L100.42 112.84C101.64 112.229 102.996 111.941 104.359 112.002C105.722 112.064 107.047 112.472 108.207 113.19C109.368 113.907 110.325 114.91 110.989 116.102C111.653 117.294 112.001 118.636 112 120ZM171.16 150.45L152 176H168C170.122 176 172.157 176.843 173.657 178.343C175.157 179.843 176 181.878 176 184C176 186.122 175.157 188.157 173.657 189.657C172.157 191.157 170.122 192 168 192H136C134.514 192 133.058 191.586 131.794 190.805C130.53 190.024 129.509 188.907 128.845 187.578C128.18 186.249 127.899 184.761 128.032 183.282C128.166 181.802 128.709 180.389 129.6 179.2L158.38 140.83C159.035 139.959 159.504 138.962 159.76 137.903C160.016 136.843 160.053 135.743 159.868 134.669C159.683 133.594 159.28 132.569 158.685 131.656C158.09 130.743 157.314 129.961 156.406 129.359C155.498 128.756 154.476 128.346 153.403 128.152C152.331 127.959 151.23 127.987 150.168 128.234C149.107 128.481 148.107 128.943 147.23 129.59C146.354 130.238 145.618 131.058 145.07 132C144.56 132.939 143.868 133.766 143.033 134.433C142.198 135.1 141.238 135.592 140.21 135.882C139.182 136.172 138.106 136.253 137.046 136.12C135.986 135.988 134.963 135.644 134.038 135.11C133.113 134.575 132.304 133.861 131.66 133.009C131.015 132.157 130.548 131.185 130.285 130.149C130.023 129.114 129.97 128.036 130.13 126.98C130.291 125.924 130.661 124.911 131.22 124C133.863 119.427 137.94 115.853 142.82 113.833C147.7 111.813 153.111 111.459 158.212 112.826C163.314 114.193 167.822 117.205 171.038 121.395C174.254 125.585 175.998 130.718 176 136C176.017 141.217 174.316 146.295 171.16 150.45Z" fill="black"/>
</svg>
