<svg width="30" height="38" viewBox="0 0 30 38" fill="none" xmlns="http://www.w3.org/2000/svg">
<path d="M16.345 7.91393C12.8886 7.60277 9.43129 8.49968 6.5621 10.4518C3.6929 12.404 1.58935 15.2906 0.609868 18.6198C-0.369618 21.9491 -0.164435 25.5149 1.19046 28.7098C2.54535 31.9047 4.96611 34.531 8.04029 36.1412C11.1145 37.7514 14.6518 38.2458 18.0497 37.5402C21.4475 36.8347 24.4956 34.9728 26.6746 32.2718C28.8536 29.5708 30.0286 26.1979 29.9995 22.7277C29.9704 19.2575 28.7389 15.9047 26.5149 13.2407L24.6812 14.7715C26.551 17.0113 27.5864 19.8301 27.6108 22.7477C27.6353 25.6653 26.6474 28.5011 24.8154 30.772C22.9835 33.0428 20.4208 34.6082 17.564 35.2014C14.7073 35.7946 11.7332 35.3789 9.1486 34.0252C6.56398 32.6714 4.52872 30.4634 3.38959 27.7772C2.25046 25.0911 2.07795 22.0931 2.90146 19.294C3.72496 16.495 5.49353 14.068 7.90581 12.4268C10.3181 10.7855 13.2248 10.0314 16.1308 10.293L16.345 7.91393Z" fill="#FF0000"/>
<path d="M18.2143 21.0396L17.8746 22.1987H11.3997L11.7394 21.0396H18.2143ZM15.1767 28.8535L11.5196 24.377L11.4996 23.5377H13.3182C13.7911 23.5377 14.1942 23.4711 14.5272 23.3378C14.8603 23.2013 15.1151 22.9981 15.2916 22.7283C15.4682 22.4552 15.5564 22.1121 15.5564 21.6991C15.5564 21.0896 15.3732 20.6116 15.0069 20.2653C14.6405 19.9155 14.0776 19.7407 13.3182 19.7407H11.3997L11.7394 18.6215H13.3182C14.1309 18.6215 14.797 18.7564 15.3166 19.0262C15.8395 19.2927 16.2259 19.6591 16.4757 20.1254C16.7288 20.5883 16.8554 21.1129 16.8554 21.6991C16.8554 22.2287 16.7388 22.7167 16.5057 23.163C16.2759 23.606 15.9062 23.9624 15.3966 24.2321C14.8903 24.5019 14.2208 24.6368 13.3881 24.6368H13.3582L16.7355 28.7736V28.8535H15.1767ZM18.2143 18.6215L17.8746 19.7806L12.7786 19.7407L13.1183 18.6215H18.2143Z" fill="#FF0000"/>
<path d="M26.043 2.50808L20.4729 12.5245" stroke="#FF0000" stroke-width="2" stroke-linecap="round"/>
<path d="M27.8802 6.55603L26.4715 1.73757L21.635 3.08309" stroke="#FF0000" stroke-width="2" stroke-linecap="round" stroke-linejoin="round"/>
</svg>
