<svg width="30" height="38" viewBox="0 0 30 38" fill="none" xmlns="http://www.w3.org/2000/svg">
<path d="M16.345 7.91406C12.8886 7.60289 9.43129 8.4998 6.5621 10.452C3.6929 12.4041 1.58935 15.2907 0.609868 18.62C-0.369618 21.9492 -0.164435 25.515 1.19046 28.71C2.54535 31.9049 4.96611 34.5311 8.04029 36.1413C11.1145 37.7515 14.6518 38.2459 18.0497 37.5403C21.4475 36.8348 24.4956 34.9729 26.6746 32.2719C28.8536 29.5709 30.0286 26.198 29.9995 22.7278C29.9704 19.2576 28.7389 15.9048 26.5149 13.2408L24.6812 14.7716C26.551 17.0114 27.5864 19.8302 27.6108 22.7478C27.6353 25.6654 26.6474 28.5012 24.8154 30.7721C22.9835 33.0429 20.4208 34.6083 17.564 35.2015C14.7073 35.7947 11.7332 35.379 9.1486 34.0253C6.56398 32.6715 4.52872 30.4635 3.38959 27.7774C2.25046 25.0912 2.07795 22.0932 2.90146 19.2942C3.72496 16.4951 5.49353 14.0682 7.90581 12.4269C10.3181 10.7856 13.2248 10.0315 16.1308 10.2931L16.345 7.91406Z" fill="#61FF00"/>
<path d="M18.2143 21.0398L17.8746 22.1989H11.3997L11.7394 21.0398H18.2143ZM15.1767 28.8536L11.5196 24.3771L11.4996 23.5378H13.3182C13.7911 23.5378 14.1942 23.4712 14.5272 23.338C14.8603 23.2014 15.1151 22.9982 15.2916 22.7284C15.4682 22.4553 15.5564 22.1123 15.5564 21.6992C15.5564 21.0897 15.3732 20.6118 15.0069 20.2654C14.6405 19.9156 14.0776 19.7408 13.3182 19.7408H11.3997L11.7394 18.6217H13.3182C14.1309 18.6217 14.797 18.7566 15.3166 19.0263C15.8395 19.2928 16.2259 19.6592 16.4757 20.1255C16.7288 20.5885 16.8554 21.113 16.8554 21.6992C16.8554 22.2288 16.7388 22.7168 16.5057 23.1631C16.2759 23.6061 15.9062 23.9625 15.3966 24.2323C14.8903 24.5021 14.2208 24.6369 13.3881 24.6369H13.3582L16.7355 28.7737V28.8536H15.1767ZM18.2143 18.6217L17.8746 19.7808L12.7786 19.7408L13.1183 18.6217H18.2143Z" fill="#61FF00"/>
<path d="M20.8275 11.712L26.558 1.7865" stroke="#61FF00" stroke-width="2" stroke-linecap="round"/>
<path d="M19.0555 7.63513L20.3866 12.4756L25.2441 11.2081" stroke="#61FF00" stroke-width="2" stroke-linecap="round" stroke-linejoin="round"/>
</svg>
