<svg id="Component_14_1" data-name="Component 14 – 1" xmlns="http://www.w3.org/2000/svg" xmlns:xlink="http://www.w3.org/1999/xlink" width="323" height="46" viewBox="0 0 323 46">
  <defs>
    <linearGradient id="linear-gradient" x1="0.881" y1="0.92" x2="0.07" y2="0.066" gradientUnits="objectBoundingBox">
      <stop offset="0" stop-color="#4960f9"/>
      <stop offset="1" stop-color="#1433ff"/>
    </linearGradient>
    <clipPath id="clip-path">
      <rect id="Rectangle_1692" data-name="Rectangle 1692" width="323" height="46" rx="23" fill="url(#linear-gradient)"/>
    </clipPath>
    <linearGradient id="linear-gradient-3" x1="0.486" y1="-0.186" x2="0.501" y2="1.169" gradientUnits="objectBoundingBox">
      <stop offset="0" stop-color="#5462f9"/>
      <stop offset="1" stop-color="#3af9ef"/>
    </linearGradient>
    <linearGradient id="linear-gradient-4" x1="0.344" y1="0.025" x2="0.628" y2="1.003" gradientUnits="objectBoundingBox">
      <stop offset="0" stop-color="#c0ccfe"/>
      <stop offset="1" stop-color="#c613f8"/>
    </linearGradient>
  </defs>
  <rect id="Rectangle_1691" data-name="Rectangle 1691" width="323" height="46" rx="23" fill="url(#linear-gradient)"/>
  <g id="Mask_Group_2" data-name="Mask Group 2" clip-path="url(#clip-path)">
    <path id="Path_7635" data-name="Path 7635" d="M40.333-.823c22.959.165,41.7,19.511,41.869,43.21S63.889,85.164,40.93,85-.774,65.489-.939,41.79,17.374-.988,40.333-.823Z" transform="matrix(0.978, 0.208, -0.208, 0.978, 275.822, -65.73)" fill="url(#linear-gradient-3)"/>
    <path id="Path_7636" data-name="Path 7636" d="M41.922,1.845C63.612,1.478,80.9,19.136,80.531,41.284s-18.247,40.4-39.937,40.767S1.618,64.761,1.985,42.612,20.232,2.212,41.922,1.845Z" transform="matrix(0.875, -0.485, 0.485, 0.875, 270.112, -21.133)" fill="url(#linear-gradient-4)"/>
  </g>
</svg>
