<svg id="Component_35_88" data-name="Component 35 – 88" xmlns="http://www.w3.org/2000/svg" width="30" height="30" viewBox="0 0 30 30">
  <g id="Path_230" data-name="Path 230" fill="#fff" opacity="0.5">
    <path d="M15,0A15,15,0,1,1,0,15,15,15,0,0,1,15,0Z" stroke="none"/>
    <path d="M 15 1 C 11.26046943664551 1 7.744760513305664 2.456249237060547 5.100509643554688 5.100509643554688 C 2.456249237060547 7.744760513305664 1 11.26046943664551 1 15 C 1 18.73952865600586 2.456249237060547 22.25523948669434 5.100509643554688 24.89949035644531 C 7.744760513305664 27.54375076293945 11.26046943664551 29 15 29 C 18.73952865600586 29 22.25523948669434 27.54375076293945 24.89949035644531 24.89949035644531 C 27.54375076293945 22.25523948669434 29 18.73952865600586 29 15 C 29 11.26046943664551 27.54375076293945 7.744760513305664 24.89949035644531 5.100509643554688 C 22.25523948669434 2.456249237060547 18.73952865600586 1 15 1 M 15 0 C 23.28426933288574 0 30 6.715730667114258 30 15 C 30 23.28426933288574 23.28426933288574 30 15 30 C 6.715730667114258 30 0 23.28426933288574 0 15 C 0 6.715730667114258 6.715730667114258 0 15 0 Z" stroke="none" fill="rgba(58,58,58,0.5)"/>
  </g>
  <g id="Group_506" data-name="Group 506" transform="translate(-340 -42)">
    <path id="Path_229" data-name="Path 229" d="M0,0H16V16H0Z" transform="translate(347 49)" fill="none"/>
    <g id="bell" transform="translate(348.932 51)">
      <path id="Path_226" data-name="Path 226" d="M2.549,8.886h7.728A1.481,1.481,0,0,0,11.67,6.9L10.263,3.008A4.109,4.109,0,0,0,6.3,0h0a4.108,4.108,0,0,0-4.01,3.217L1.135,6.968A1.481,1.481,0,0,0,2.549,8.886Z" transform="translate(0)" fill="#3a3a3a"/>
      <path id="Path_227" data-name="Path 227" d="M7.1,20a2.468,2.468,0,0,0,4.838,0Z" transform="translate(-3.054 -10.127)" fill="#3a3a3a"/>
    </g>
  </g>
</svg>
