<svg width="24" height="24" viewBox="0 0 24 24" fill="none" xmlns="http://www.w3.org/2000/svg">
<path d="M4.51964 5.93504L1.39364 2.80804L2.80764 1.39404L22.6066 21.192L21.1926 22.607L17.8826 19.297C16.1236 20.4128 14.0827 21.0036 11.9996 21C6.60764 21 2.12164 17.12 1.18164 12C1.61133 9.67137 2.78219 7.54396 4.51964 5.93504ZM14.7576 16.172L13.2936 14.708C12.7337 14.976 12.1044 15.0636 11.4926 14.9588C10.8807 14.8541 10.3164 14.5621 9.87751 14.1232C9.43858 13.6842 9.14661 13.12 9.04186 12.5081C8.9371 11.8963 9.02472 11.267 9.29264 10.707L7.82864 9.24304C7.19236 10.2045 6.90791 11.3564 7.02347 12.5035C7.13903 13.6507 7.64749 14.7227 8.46276 15.5379C9.27803 16.3532 10.35 16.8617 11.4972 16.9772C12.6443 17.0928 13.7962 16.8083 14.7576 16.172ZM7.97364 3.76004C9.22064 3.27004 10.5796 3.00004 11.9996 3.00004C17.3916 3.00004 21.8776 6.88004 22.8186 12C22.5124 13.6661 21.8236 15.2383 20.8066 16.593L16.9466 12.733C17.0613 11.9607 16.9935 11.1722 16.7486 10.4307C16.5037 9.68924 16.0885 9.01546 15.5364 8.46331C14.9842 7.91117 14.3104 7.49601 13.569 7.25112C12.8275 7.00622 12.039 6.93838 11.2666 7.05304L7.97364 3.76004Z" fill="black"/>
</svg>
