<svg xmlns="http://www.w3.org/2000/svg" xmlns:xlink="http://www.w3.org/1999/xlink" width="430" height="932" viewBox="0 0 430 932">
  <defs>
    <linearGradient id="linear-gradient" x1="0.344" y1="0.025" x2="0.628" y2="1.003" gradientUnits="objectBoundingBox">
      <stop offset="0" stop-color="#c0ccfe"/>
      <stop offset="1" stop-color="#c613f8"/>
    </linearGradient>
    <linearGradient id="linear-gradient-2" x1="0.488" y1="-0.219" x2="0.55" y2="1.06" gradientUnits="objectBoundingBox">
      <stop offset="0" stop-color="#3af9ef"/>
      <stop offset="1" stop-color="#c100ff"/>
    </linearGradient>
    <linearGradient id="linear-gradient-3" x1="0.486" y1="-0.186" x2="0.501" y2="1.169" gradientUnits="objectBoundingBox">
      <stop offset="0" stop-color="#5462f9"/>
      <stop offset="1" stop-color="#3af9ef"/>
    </linearGradient>
    <clipPath id="clip-Reset_password_1">
      <rect width="430" height="932"/>
    </clipPath>
  </defs>
  <g id="Reset_password_1" data-name="Reset password – 1" clip-path="url(#clip-Reset_password_1)">
    <rect width="430" height="932" fill="#fff"/>
    <rect id="Rectangle_1511" data-name="Rectangle 1511" width="430" height="932" fill="#f4f4f4"/>
    <g id="Group_505" data-name="Group 505" transform="translate(14 19)">
      <ellipse id="Ellipse_256" data-name="Ellipse 256" cx="98.374" cy="98.374" rx="98.374" ry="98.374" transform="matrix(-0.755, -0.656, 0.656, -0.755, 85.921, 149.855)" fill="url(#linear-gradient)"/>
      <circle id="Ellipse_257" data-name="Ellipse 257" cx="100.019" cy="100.019" r="100.019" transform="matrix(-0.743, -0.669, 0.669, -0.743, 44.996, 159.074)" fill="url(#linear-gradient-2)"/>
      <ellipse id="Ellipse_258" data-name="Ellipse 258" cx="104.953" cy="104.953" rx="104.953" ry="104.953" transform="matrix(0.978, 0.208, -0.208, 0.978, -60.019, -151.761)" fill="url(#linear-gradient-3)"/>
    </g>
    <g id="Group_866" data-name="Group 866" transform="translate(401.545 903.694) rotate(129)">
      <ellipse id="Ellipse_256-2" data-name="Ellipse 256" cx="98.374" cy="98.374" rx="98.374" ry="98.374" transform="matrix(-0.755, -0.656, 0.656, -0.755, 128.562, 183.444)" fill="url(#linear-gradient)"/>
      <circle id="Ellipse_257-2" data-name="Ellipse 257" cx="100.019" cy="100.019" r="100.019" transform="matrix(-0.743, -0.669, 0.669, -0.743, 46.804, 121.581)" fill="url(#linear-gradient-2)"/>
      <ellipse id="Ellipse_258-2" data-name="Ellipse 258" cx="104.953" cy="104.953" rx="104.953" ry="104.953" transform="matrix(0.978, 0.208, -0.208, 0.978, -120.035, -162.314)" fill="url(#linear-gradient-3)"/>
    </g>
  </g>
</svg>
