<svg xmlns="http://www.w3.org/2000/svg" width="18" height="11.563" viewBox="0 0 18 11.563">
  <g id="Group_2113" data-name="Group 2113" transform="translate(-219.717 8491.533)">
    <path id="Subtraction_1" data-name="Subtraction 1" d="M17.523,8.437H15.264A5.481,5.481,0,0,0,12.091,4.8a5.1,5.1,0,0,1,1.619-.26C16.072,4.54,18,6.114,18,8.048A.441.441,0,0,1,17.523,8.437Zm-14.788,0H.477A.441.441,0,0,1,0,8.048C0,6.114,1.927,4.54,4.288,4.539a5.11,5.11,0,0,1,1.62.26A5.484,5.484,0,0,0,2.735,8.437Zm10.723-4.22a2.012,2.012,0,0,1-1.892-2.109A2.011,2.011,0,0,1,13.457,0,2.011,2.011,0,0,1,15.35,2.108,2.012,2.012,0,0,1,13.457,4.218Zm-9.422,0A2.012,2.012,0,0,1,2.143,2.108,2.011,2.011,0,0,1,4.036,0,2.011,2.011,0,0,1,5.928,2.108,2.012,2.012,0,0,1,4.036,4.218Z" transform="translate(219.717 -8489.97)" fill="#5f5c5c"/>
    <g id="Group_1497" data-name="Group 1497" transform="translate(222.951 -8491.533)">
      <ellipse id="Ellipse_255" data-name="Ellipse 255" cx="2.543" cy="2.883" rx="2.543" ry="2.883" transform="translate(2.883 0)" fill="#5f5c5c"/>
      <path id="Path_222" data-name="Path 222" d="M69.765,298.667c-3.183,0-5.762,2.148-5.765,4.8a.594.594,0,0,0,.641.533H74.89a.594.594,0,0,0,.641-.533C75.527,300.815,72.948,298.67,69.765,298.667Z" transform="translate(-64 -292.432)" fill="#5f5c5c"/>
    </g>
  </g>
</svg>
