<svg xmlns="http://www.w3.org/2000/svg" width="15.454" height="13.022" viewBox="0 0 15.454 13.022">
  <path id="ant-design_camera-filled" d="M94.023,150H91.591l-.58-1.624a.574.574,0,0,0-.54-.379H84.983a.571.571,0,0,0-.538.379L83.864,150H81.431A1.431,1.431,0,0,0,80,151.434v8.157a1.431,1.431,0,0,0,1.431,1.431H94.023a1.431,1.431,0,0,0,1.431-1.431v-8.157A1.431,1.431,0,0,0,94.023,150Zm-6.3,8.157a2.862,2.862,0,1,1,2.862-2.862A2.861,2.861,0,0,1,87.727,158.16ZM86.01,155.3a1.717,1.717,0,1,0,.5-1.214A1.717,1.717,0,0,0,86.01,155.3Z" transform="translate(-80 -148)" fill="#3a3a3a"/>
</svg>
