<svg xmlns="http://www.w3.org/2000/svg" width="18.254" height="17.957" viewBox="0 0 18.254 17.957">
  <g id="Group_2115" data-name="Group 2115" transform="translate(1153 2329)">
    <path id="Path_7617" data-name="Path 7617" d="M2.049,0A1.639,1.639,0,0,0,.424,1.367L0,3.983H.051a2.494,2.494,0,0,0-.051.5A2.553,2.553,0,0,0,4.74,5.763a2.564,2.564,0,0,0,4.387,0,2.564,2.564,0,0,0,4.387,0,2.553,2.553,0,0,0,4.74-1.277,2.5,2.5,0,0,0-.051-.5h.051l-.4-2.6A1.639,1.639,0,0,0,16.23,0Z" transform="translate(-1153 -2329)" fill="#5f5c5c" fill-rule="evenodd"/>
    <path id="Path_7618" data-name="Path 7618" d="M4.906,19.4H3.627A1.611,1.611,0,0,1,2,17.807V6.994A1.611,1.611,0,0,1,3.627,5.4H16.373A1.611,1.611,0,0,1,18,6.994V17.807A1.611,1.611,0,0,1,16.373,19.4H15.366" transform="translate(-1153.81 -2331.276)" fill="none" stroke="#5f5c5c" stroke-linecap="round" stroke-width="1.667"/>
    <g id="Group_2114" data-name="Group 2114" transform="translate(-20.164 7)">
      <circle id="Ellipse_272" data-name="Ellipse 272" cx="1.5" cy="1.5" r="1.5" transform="translate(-1125.146 -2325.5)" fill="#5f5c5c"/>
      <path id="Path_7619" data-name="Path 7619" d="M9,28.756a2.965,2.965,0,0,1,2.93-3H14.07a2.965,2.965,0,0,1,2.93,3H9Z" transform="translate(-1136.646 -2347.435)" fill="#5f5c5c"/>
    </g>
  </g>
</svg>
